<svg id="Calque_1" data-name="Calque 1" xmlns="http://www.w3.org/2000/svg" viewBox="0 0 429 256"><defs><style>.cls-1{fill:#fed600;}.cls-2{fill:#fe0000;}</style></defs><title>de</title><path d="M92.09,354c0-27.12.08-54.24-.09-81.36,0-3.62.61-4.67,4.51-4.67q181,.19,362.05.11c19.64,0,39.28.1,58.92-.11,3.19,0,3.51.89,3.5,3.67-.12,27.46-.07,54.91-.07,82.36-1.82-.11-3.63-.34-5.45-.34H97.54C95.72,353.69,93.91,353.92,92.09,354Z" transform="translate(-92 -268)"/><path class="cls-1" d="M520.91,438c0,27.12-.08,54.24.09,81.36,0,3.62-.61,4.67-4.51,4.67q-180.78-.19-361.55-.11c-19.81,0-39.62-.1-59.42.11-3.19,0-3.51-.89-3.5-3.67.12-27.46.07-54.91.07-82.36,2.15.11,4.31.33,6.46.33h415.9C516.6,438.3,518.76,438.08,520.91,438Z" transform="translate(-92 -268)"/><path class="cls-2" d="M520.91,438c-2.15.11-4.31.33-6.46.33H98.55c-2.15,0-4.31-.22-6.46-.33V354c1.82-.11,3.63-.34,5.45-.34H515.46c1.82,0,3.63.23,5.45.34Z" transform="translate(-92 -268)"/></svg>