<svg id="Calque_1" data-name="Calque 1" xmlns="http://www.w3.org/2000/svg" viewBox="0 0 103.34 61.43"><defs><style>.cls-1{fill:#cd1227;}.cls-2{fill:#fcfbfb;}.cls-3{fill:#012b7f;}</style></defs><title>uk</title><path class="cls-1" d="M255.05,402V389.52a3.81,3.81,0,0,0,.47.07q22.41,0,44.83,0c.89,0,.94-.39.94-1.08q0-9,0-18c0-1.84,0-3.67.06-5.51h10.31c0,7.7,0,15.41,0,23.11,0,1.12.21,1.45,1.41,1.45,14.53-.05,29.07,0,43.61,0,.44,0,.87,0,1.31-.07V402c-.48,0-.95.09-1.43.09q-21.84,0-43.69,0c-.91,0-1.21.2-1.2,1.17,0,7.73,0,15.47,0,23.21H301.34c0-.44-.06-.88-.06-1.31,0-7.14,0-14.28,0-21.42,0-1.73.25-1.63-1.58-1.63H256.47C256,402.07,255.53,402,255.05,402Z" transform="translate(-255 -365.01)"/><path class="cls-2" d="M311.65,426.43c0-7.74,0-15.48,0-23.21,0-1,.29-1.17,1.2-1.17q21.84,0,43.69,0c.48,0,.95-.06,1.43-.09v4.31a4,4,0,0,0-.47-.06H336c-.15,0-.33,0-.34.26q9.24,5.55,18.53,11.11a26.88,26.88,0,0,0,3.72,2.13v2.15c-7-4.21-14.11-8.28-21-12.71-3.44-2.21-6.89-3.49-11-2.94-.46.06-1-.19-1.47.22l15.25,9.16,17.92,10.83h-12c-.43-.29-.86-.59-1.3-.85l-26.87-16.14c-.77-.47-1.55-.92-2.48-1.48v1.35q0,8.56-.05,17.12Z" transform="translate(-255 -365.01)"/><path class="cls-2" d="M301.34,365.07c0,1.84-.06,3.67-.06,5.51q0,9,0,18c0,.69-.05,1.08-.94,1.08q-22.41,0-44.83,0a3.81,3.81,0,0,1-.47-.07v-4.08h22.49c-.54-.34-.79-.51-1.05-.66-4.47-2.69-8.93-5.4-13.42-8.06-2.67-1.57-5.24-3.31-8-4.7v-2.16c7.15,4.3,14.38,8.47,21.41,13,3.1,2,6.18,3.15,9.84,2.65a7.06,7.06,0,0,0,2.15-.17c-6.73-4-13.32-8-19.93-12-4.48-2.69-9-5.35-13.47-8,.1-.51.49-.22.72-.22,3.76,0,7.51,0,11.27,0,.08.38.44.43.7.58l29.44,17.69c.16.09.31.27.56.13v-18.4Z" transform="translate(-255 -365.01)"/><path class="cls-2" d="M255.05,402c.48,0,.95.09,1.42.09h43.22c1.83,0,1.58-.1,1.58,1.63,0,7.14,0,14.28,0,21.42,0,.43,0,.87.06,1.31h-3.6V408.05l-.87.49q-10.87,6.54-21.75,13.08c-2.62,1.59-5.32,3.05-7.84,4.81H263c.23-.16.46-.33.69-.47l26.26-15.78,6.19-3.72c-2.12-.24-4.17-.22-6.23-.25a3.52,3.52,0,0,0-2,.55q-9.89,6-19.79,11.91c-4.27,2.57-8.51,5.17-12.77,7.76-.47,0-.23-.33-.23-.48,0-2.08,0-4.16,0-6.23.18-.09.37-.16.54-.26L277,406.6c.13-.08.29-.13.15-.38-5,0-10.1,0-15.17,0-2.31,0-4.62,0-6.93.07Z" transform="translate(-255 -365.01)"/><path class="cls-2" d="M357.94,389.52c-.44,0-.87.07-1.31.07-14.54,0-29.08,0-43.61,0-1.2,0-1.41-.33-1.41-1.45.06-7.7,0-15.41,0-23.11H315v18.65l1.06-.6q11-6.58,21.94-13.19c2.66-1.6,5.39-3.08,7.94-4.86h4.31c-.22.16-.45.33-.68.47q-15.9,9.56-31.79,19.11a2.22,2.22,0,0,0-1.06.82c2.2,0,4.27,0,6.34,0a3.61,3.61,0,0,0,2-.56q14.19-8.55,28.41-17.07a30.89,30.89,0,0,1,4.44-2.54V372c-.45,0-.73.29-1.06.49q-8.36,5-16.69,10l-4.53,2.72.08.19h22.2Z" transform="translate(-255 -365.01)"/><path class="cls-3" d="M346,365.07c-2.55,1.78-5.28,3.26-7.94,4.86q-11,6.61-21.94,13.19l-1.06.6V365.07Z" transform="translate(-255 -365.01)"/><path class="cls-3" d="M297.74,365.07v18.4c-.25.14-.4,0-.56-.13l-29.44-17.69c-.26-.15-.62-.2-.7-.58Z" transform="translate(-255 -365.01)"/><path class="cls-3" d="M315,426.43q0-8.56.05-17.12V408c.93.56,1.71,1,2.48,1.48l26.87,16.14c.44.26.87.56,1.3.85Z" transform="translate(-255 -365.01)"/><path class="cls-3" d="M267.28,426.43c2.52-1.76,5.22-3.22,7.84-4.81q10.86-6.56,21.75-13.08l.87-.49v18.38Z" transform="translate(-255 -365.01)"/><path class="cls-1" d="M358.34,365.07c-4.44,2.54-.4.24-4.84,2.78q-14.22,8.5-28.41,17.07c-.64.39-1,.56-1,.56-2.07,0-5.46,0-7.66,0,1.29-.78,1-.63,1.35-.83q15.88-9.57,31.79-19.11c.23-.14.46-.31.68-.47h8.08Z" transform="translate(-255 -365.01)"/><path class="cls-1" d="M255.29,426.43c4.26-2.59,8.5-5.19,12.77-7.76q9.88-6,19.79-11.91l1-.55c2.05,0,1.05,0,7.71,0l-6.62,4L263.65,426c-.23.14-.46.31-.69.47Z" transform="translate(-255 -365.01)"/><path class="cls-3" d="M357.94,385.44h-22.2l-.08-.19,4.53-2.72q8.34-5,16.69-10c.33-.2.61-.53,1.06-.49Z" transform="translate(-255 -365.01)"/><path class="cls-3" d="M255.05,372c2.78,1.39,5.35,3.13,8,4.7,4.49,2.66,8.95,5.37,13.42,8.06.26.15.51.32,1.05.66H255.05Z" transform="translate(-255 -365.01)"/><path class="cls-3" d="M357.94,419.72a26.88,26.88,0,0,1-3.72-2.13c-6.19-3.7-12.8-7.67-19-11.37h22.21a4,4,0,0,1,.47.06Z" transform="translate(-255 -365.01)"/><path class="cls-3" d="M255.05,406.29c2.31,0,4.62-.06,6.93-.07,5.07,0,10.13,0,15.17,0h.48l-22,13.24c-.17.1-.36.17-.54.26Z" transform="translate(-255 -365.01)"/><path class="cls-1" d="M255.05,365.31c4.49,2.67,9,5.33,13.47,8,6.61,3.95,13.2,8.07,19.93,12.11h-7.64c-4.41-2.7-1.25-.65-4.35-2.62-7-4.49-14.26-8.66-21.41-13Z" transform="translate(-255 -365.01)"/><path class="cls-1" d="M357.7,426.43,339.78,415.6c-5-3-10.12-6.3-15.25-9.38h7.83c.05,0,0,0,4.6,2.93,6.87,4.43,14,8.5,21,12.71,0,1.4,0,2.8,0,4.2C357.93,426.21,358.08,426.51,357.7,426.43Z" transform="translate(-255 -365.01)"/></svg>